<svg width="124" height="67" viewBox="0 0 124 67" fill="none" xmlns="http://www.w3.org/2000/svg">
<path d="M5.21173 15.5582C5.21173 27.9892 5.69945 40.1481 10.3304 51.9034C11.0482 53.7256 13.4885 60.433 16.9331 61.1412C18.0593 61.3727 19.2869 60.6916 20.1739 59.96C26.2268 54.9668 30.6695 48.2913 36.0446 42.5748C43.7349 34.3961 55.9887 21.669 64.5756 14.2861C67.8109 11.5045 71.1517 8.77031 74.8735 6.68389C79.7382 3.95668 81.0074 4.47214 82.9906 8.74346C86.0646 15.3644 86.6323 23.9713 88.0789 31.1261C88.4029 32.7286 88.3582 36.8127 90.199 37.6379C92.3055 38.5822 95.5741 39.5329 97.5892 37.9105C100.541 35.5342 117.3 9.34296 118.064 10.1064" stroke="#000AFF" stroke-width="10" stroke-linecap="round"/>
</svg>
