<svg width="150" height="28" viewBox="0 0 150 28" fill="none" xmlns="http://www.w3.org/2000/svg">
<path d="M15.3872 26.8687L15.5295 27.1286H15.8258H26.4313H26.7276L26.8699 26.8687L40.6957 1.61154L41.1009 0.87146H40.2571H32.786H32.4894L32.3472 1.13187L21.1286 21.6808L9.90995 1.13187L9.76778 0.87146H9.47109H2H1.15629L1.56141 1.61154L15.3872 26.8687Z" stroke="#D9D9D9"/>
<path d="M36.9143 26.8207L50.7346 1.17969H61.3359L75.1561 26.8207H67.688L64.7695 21.4056H47.301L44.3824 26.8207H36.9143ZM49.7903 16.7436H62.2801L56.3142 5.66238H55.7562L49.7903 16.7436Z" fill="#D9D9D9"/>
<path d="M93.5518 27C87.8863 27 83.5514 25.9122 80.547 23.7366C77.5426 21.5371 76.0404 18.2856 76.0404 13.9823C76.0404 9.70279 77.5426 6.46329 80.547 4.26379C83.5514 2.06428 87.8863 0.976478 93.5518 1.00039L109.003 1.07211V5.66238H94.0239C90.3042 5.66238 87.543 6.31985 85.7403 7.63477C83.9377 8.94969 83.0363 11.0655 83.0363 13.9823C83.0363 16.899 83.9377 19.0268 85.7403 20.3656C87.543 21.6805 90.3042 22.338 94.0239 22.338H109.432V27H93.5518Z" fill="#D9D9D9"/>
<path d="M113.72 26.8207V1.17969H120.587V11.6871H142.219V1.17969H149.086V26.8207H142.219V16.3491H120.587V26.8207H113.72Z" fill="#D9D9D9"/>
</svg>
